# xmcd
#
# Track frame offsets:
#	150
#	12544
#	27435
#	46317
#	63684
#	80280
#	96890
#	113448
#	124382
#	142514
#	164174
#	178507
#	196041
#	210381
#	228037
#	242270
#	257728
#	272015
#	291203
#
# Disc length: 4105 seconds
#
# Revision: 1
# Processed by: cddbd v1.5.2PL0 Copyright (c) Steve Scherf et al.
# Submitted via: audiograbber 1.83.01
#
DISCID=fd100713
DTITLE=Various Artist - Advance Warning Kicking Country 01
DYEAR=1900
DGENRE=Country
TTITLE0=Gary Allan - Her Man
TTITLE1=John Berry - Change My Mind
TTITLE2=Blue Rodeo - Get Through To You
TTITLE3=Deanna Carter - Strawberry Wine
TTITLE4=Kenny Chesney - Me And You
TTITLE5=Billy Ray Cyrus - Trail Of Tears
TTITLE6=Diamond Rio - It's All In Your Head
TTITLE7=Jeff Foxworthy - Redneck 12 Days Of Christmas
TTITLE8=Faith Hill - I Can't Do That Anymore
TTITLE9=Toby Keith - Woman's Touch, A
TTITLE10=Mindy McCready - Guys Do It All The Time
TTITLE11=David Lee Murphy - Road You Leave Behind, The
TTITLE12=Ricochet - Love Is Stronger Than Pride
TTITLE13=Pam Tillis - Betty's Got A Bass Boat
TTITLE14=Aaron Tippin - How's The Radio Know
TTITLE15=Travis Tritt - More Than You'll Ever Know
TTITLE16=Bryan White - That's Another Song
TTITLE17=Wynonna Judd - My Angel Is Here
TTITLE18=Trisha Yearwood - Believe Me Baby (I Lied)
EXTD=
EXTT0=
EXTT1=
EXTT2=
EXTT3=
EXTT4=
EXTT5=
EXTT6=
EXTT7=
EXTT8=
EXTT9=
EXTT10=
EXTT11=
EXTT12=
EXTT13=
EXTT14=
EXTT15=
EXTT16=
EXTT17=
EXTT18=
PLAYORDER=
